name GIL02_fast3.mot
datacolumns 153
datarows 4
range 0.76666665 0.79166663
endheader

                time	           pelvis_tx	           pelvis_ty	           pelvis_tz	         pelvis_tilt	         pelvis_list	     pelvis_rotation	       hip_flexion_r	     hip_adduction_r	      hip_rotation_r	        knee_angle_r	       ankle_angle_r	    subtalar_angle_r	         mtp_angle_r	       hip_flexion_l	     hip_adduction_l	      hip_rotation_l	        knee_angle_l	       ankle_angle_l	    subtalar_angle_l	         mtp_angle_l	    lumbar_extension	      lumbar_bending	     lumbar_rotation	     ground_force_vx	     ground_force_vy	     ground_force_vz	     ground_force_px	     ground_force_py	     ground_force_pz	     ground_force_vx	     ground_force_vy	     ground_force_vz	     ground_force_px	     ground_force_py	     ground_force_pz	     ground_torque_x	     ground_torque_y	     ground_torque_z	     ground_torque_x	     ground_torque_y	     ground_torque_z	    ground_marker_px	    ground_marker_py	    ground_marker_pz	    ground_marker_px	    ground_marker_py	    ground_marker_pz	    ground_marker_px	    ground_marker_py	    ground_marker_pz	    ground_marker_px	    ground_marker_py	    ground_marker_pz	    ground_marker_px	    ground_marker_py	    ground_marker_pz	    ground_marker_px	    ground_marker_py	    ground_marker_pz	    ground_marker_px	    ground_marker_py	    ground_marker_pz	    ground_marker_px	    ground_marker_py	    ground_marker_pz	    ground_marker_px	    ground_marker_py	    ground_marker_pz	    ground_marker_px	    ground_marker_py	    ground_marker_pz	    ground_marker_px	    ground_marker_py	    ground_marker_pz	    ground_marker_px	    ground_marker_py	    ground_marker_pz	    ground_marker_px	    ground_marker_py	    ground_marker_pz	    ground_marker_px	    ground_marker_py	    ground_marker_pz	    ground_marker_px	    ground_marker_py	    ground_marker_pz	    ground_marker_px	    ground_marker_py	    ground_marker_pz	    ground_marker_px	    ground_marker_py	    ground_marker_pz	    ground_marker_px	    ground_marker_py	    ground_marker_pz	    ground_marker_px	    ground_marker_py	    ground_marker_pz	    ground_marker_px	    ground_marker_py	    ground_marker_pz	    ground_marker_px	    ground_marker_py	    ground_marker_pz	    ground_marker_px	    ground_marker_py	    ground_marker_pz	    ground_marker_px	    ground_marker_py	    ground_marker_pz	    ground_marker_px	    ground_marker_py	    ground_marker_pz	    ground_marker_px	    ground_marker_py	    ground_marker_pz	    ground_marker_px	    ground_marker_py	    ground_marker_pz	    ground_marker_px	    ground_marker_py	    ground_marker_pz	    ground_marker_px	    ground_marker_py	    ground_marker_pz	    ground_marker_px	    ground_marker_py	    ground_marker_pz	    ground_marker_px	    ground_marker_py	    ground_marker_pz	    ground_marker_px	    ground_marker_py	    ground_marker_pz	    ground_marker_px	    ground_marker_py	    ground_marker_pz	    ground_marker_px	    ground_marker_py	    ground_marker_pz	    ground_marker_px	    ground_marker_py	    ground_marker_pz	    ground_marker_px	    ground_marker_py	    ground_marker_pz	    ground_marker_px	    ground_marker_py	    ground_marker_pz	    ground_marker_px	    ground_marker_py	    ground_marker_pz	
          0.76666665	          1.55732977	          0.96109998	         -0.18022680	         -2.10362244	          3.98243093	         -3.53118324	         26.62806320	         -5.99690628	         10.72535324	        -45.15782166	          1.53353262	          0.00000000	          0.00000000	         -3.62778282	          9.58598042	          6.45071554	         -3.24697542	          6.11282301	          0.00000000	          0.00000000	         -2.97154927	         -1.30491507	         -3.65115094	          0.00000000	          0.00000000	          0.00000000	          0.92626471	          0.00000000	         -0.17359875	         -7.61122753	        440.26353014	         -4.09193945	          1.46619702	          0.00000000	         -0.19373628	          0.00000000	          0.00000000	          0.00000000	          0.00000000	          0.14343330	          0.00000000	          1.47076297	          0.89602351	         -0.18622465	          1.46228445	          0.87399322	         -0.11656965	          1.47381139	          0.88184875	         -0.26635084	          1.63352478	          0.48746312	         -0.07913074	          1.42734408	          0.46849343	         -0.22163689	          1.48842132	          0.11946875	         -0.07671709	          1.35916269	          0.07835714	         -0.17271122	          1.55732977	          0.96109998	         -0.18022680	          1.54843712	          0.95503968	         -0.06467474	          1.56622243	          0.96716034	         -0.29577887	          1.37065208	          1.00493705	         -0.15251389	          1.38104546	          1.01054931	         -0.23708498	          1.63653624	          0.49441573	         -0.02112349	          1.43720627	          0.46125194	         -0.27833167	          1.64010274	          0.47398046	         -0.13247421	          1.40559864	          0.45889965	         -0.17298351	          1.47290611	          0.12582472	         -0.04040069	          1.34328961	          0.07666872	         -0.20829491	          1.50285959	          0.12843151	         -0.10330533	          1.36491215	          0.09632123	         -0.14808618	          1.36725593	          1.42376852	         -0.17933977	          1.49330842	          1.35698593	         -0.11663654	          1.50810039	          1.35956645	         -0.22285433	          1.48298240	          1.36468661	         -0.16904849	          1.57565379	          1.20694137	         -0.17190331	          1.63877380	          0.59649688	          0.05267082	          1.58301592	          0.53164351	         -0.21719046	          1.63386774	          0.66271192	         -0.01444889	          1.52608621	          0.59137130	         -0.26934564	          1.66778147	          0.58305424	         -0.03329641	          1.49431455	          0.51029843	         -0.26221952	          1.53032005	          0.24677999	          0.04643738	          1.39401531	          0.19713558	         -0.30682540	          1.51493466	          0.21671239	         -0.02659201	          1.36699915	          0.17242710	         -0.23430200	          1.58559060	          0.05634005	         -0.05155901	          1.47678518	          0.03977681	         -0.18231393	
          0.77499998	          1.56886482	          0.96079159	         -0.18005252	         -1.99371815	          3.72444081	         -3.37775588	         27.05241776	         -5.61886978	         10.49472618	        -42.47244644	          1.78531778	          0.00000000	          0.00000000	         -5.10229206	          9.25372314	          7.37853479	         -2.18809938	          5.95104456	          0.00000000	          0.00000000	         -3.10581350	         -1.00104320	         -3.89408326	          0.00000000	          0.00000000	          0.00000000	          0.92766516	          0.00000000	         -0.17455763	         -2.35373226	        430.55134086	         -3.03642893	          1.46735913	          0.00000000	         -0.19391006	          0.00000000	          0.00000000	          0.00000000	          0.00000000	          0.16313513	          0.00000000	          1.48262167	          0.89571214	         -0.18579271	          1.47423816	          0.87372386	         -0.11572197	          1.48519707	          0.88104570	         -0.26557282	          1.64979720	          0.48839927	         -0.07994334	          1.42941988	          0.46908346	         -0.22230962	          1.52565873	          0.11205523	         -0.07741513	          1.35932446	          0.07937664	         -0.17275721	          1.56886482	          0.96079159	         -0.18005252	          1.56043053	          0.95515645	         -0.06472199	          1.57729924	          0.96642673	         -0.29538307	          1.38221943	          1.00422633	         -0.15161014	          1.39207435	          1.00976944	         -0.23592441	          1.65287602	          0.49518961	         -0.02192039	          1.43978679	          0.46173683	         -0.27890074	          1.65537107	          0.47459909	         -0.13287456	          1.40709233	          0.46170571	         -0.17301895	          1.50987065	          0.11750719	         -0.04106944	          1.34331369	          0.07773944	         -0.20828146	          1.53920090	          0.12181216	         -0.10395922	          1.36551571	          0.09730410	         -0.14834830	          1.37931681	          1.42321026	         -0.17919730	          1.50521421	          1.35635197	         -0.11686427	          1.52004194	          1.35906780	         -0.22266048	          1.49506605	          1.36413157	         -0.16926114	          1.58751202	          1.20634496	         -0.17207287	          1.65400636	          0.59727508	          0.05188114	          1.58649719	          0.52929413	         -0.21595439	          1.64764619	          0.66334939	         -0.01478527	          1.53189027	          0.59058398	         -0.26909378	          1.68251061	          0.58393747	         -0.03395864	          1.49796093	          0.51002890	         -0.26162940	          1.56052363	          0.24171914	          0.04575137	          1.39437246	          0.19806880	         -0.30717164	          1.54613328	          0.21028344	         -0.02745027	          1.36753750	          0.17360777	         -0.23460199	          1.62644923	          0.05508165	         -0.05341841	          1.47665012	          0.03983991	         -0.18257248	
          0.78333330	          1.58041906	          0.96021789	         -0.17982343	         -1.86106491	          3.46406603	         -3.20628238	         27.38725281	         -5.24790001	         10.05262661	        -39.71638870	          1.98719215	          0.00000000	          0.00000000	         -6.55484629	          8.90775299	          8.33786869	         -1.21296096	          5.84559822	          0.00000000	          0.00000000	         -3.30891109	         -0.27415320	         -4.31664705	          0.00000000	          0.00000000	          0.00000000	          0.92890363	          0.00000000	         -0.17530647	          3.20746992	        425.12349763	         -1.38036303	          1.46827856	          0.00000000	         -0.19406081	          0.00000000	          0.00000000	          0.00000000	          0.00000000	          0.19674350	          0.00000000	          1.49418783	          0.89484459	         -0.18525217	          1.48626840	          0.87315273	         -0.11479453	          1.49661124	          0.87994790	         -0.26471397	          1.66565442	          0.48893306	         -0.08079281	          1.43188596	          0.46960935	         -0.22290924	          1.56308115	          0.10528797	         -0.07842300	          1.35956669	          0.08037268	         -0.17274953	          1.58041906	          0.96021789	         -0.17982343	          1.57247508	          0.95499873	         -0.06467469	          1.58836305	          0.96543705	         -0.29497215	          1.39375806	          1.00321937	         -0.15068765	          1.40309715	          1.00864279	         -0.23481703	          1.66863966	          0.49546462	         -0.02273527	          1.44278550	          0.46213657	         -0.27938363	          1.67081892	          0.47531107	         -0.13397834	          1.40883625	          0.46261805	         -0.17384771	          1.54707563	          0.10979201	         -0.04204255	          1.34342670	          0.07880067	         -0.20821831	          1.57587409	          0.11568724	         -0.10494533	          1.36617708	          0.09812595	         -0.14850856	          1.39148700	          1.42249167	         -0.17939863	          1.51707423	          1.35522497	         -0.11671037	          1.53245711	          1.35886252	         -0.22311994	          1.50716293	          1.36327398	         -0.16948991	          1.59978783	          1.20576465	         -0.17316902	          1.66848099	          0.59742194	          0.05109258	          1.59012723	          0.52706838	         -0.21460080	          1.66162336	          0.66368115	         -0.01548127	          1.53703749	          0.58981192	         -0.26837981	          1.69702756	          0.58465981	         -0.03476212	          1.50138819	          0.50911665	         -0.26130474	          1.59075475	          0.23687039	          0.04486211	          1.39494085	          0.19896005	         -0.30748525	          1.57790720	          0.20401892	         -0.02842547	          1.36822486	          0.17474997	         -0.23448946	          1.66715980	          0.05455869	         -0.05536358	          1.47657979	          0.03990462	         -0.18278237	
          0.79166663	          1.59198618	          0.95936930	         -0.17956460	         -1.71186256	          3.20533061	         -3.02588224	         27.64727783	         -4.88744068	          9.41783047	        -36.91353989	          2.11888051	          0.00000000	          0.00000000	         -7.96493101	          8.55847931	          9.28028011	         -0.34924662	          5.81397009	          0.00000000	          0.00000000	         -3.59234357	          0.19361062	         -4.83204556	          0.00000000	          0.00000000	          0.00000000	          0.92997449	          0.00000000	         -0.17585851	          8.97588872	        425.17606368	          0.90091705	          1.46907727	          0.00000000	         -0.19414328	          0.00000000	          0.00000000	          0.00000000	          0.00000000	          0.25008557	          0.00000000	          1.50601745	          0.89394969	         -0.18445115	          1.49834812	          0.87228024	         -0.11383137	          1.50805354	          0.87855798	         -0.26381597	          1.68111455	          0.48906845	         -0.08166098	          1.43483245	          0.47004598	         -0.22341377	          1.60054564	          0.09929276	         -0.07972346	          1.35988474	          0.08132240	         -0.17267856	          1.59198618	          0.95936930	         -0.17956460	          1.58454335	          0.95455509	         -0.06454705	          1.59942889	          0.96418351	         -0.29458213	          1.40525031	          1.00191855	         -0.14975126	          1.41415846	          1.00717807	         -0.23378727	          1.68385017	          0.49525136	         -0.02355300	          1.44625521	          0.46242538	         -0.27976486	          1.68349588	          0.47557408	         -0.13531043	          1.41067457	          0.46325848	         -0.17468281	          1.58438957	          0.10281336	         -0.04330114	          1.34363925	          0.07983117	         -0.20810251	          1.61265135	          0.11040436	         -0.10621584	          1.36642587	          0.09916789	         -0.14843187	          1.40357912	          1.42170048	         -0.17979385	          1.52904451	          1.35379708	         -0.11676902	          1.54507744	          1.35785270	         -0.22358666	          1.51931298	          1.36210835	         -0.16972107	          1.61182630	          1.20442331	         -0.17364039	          1.68223858	          0.59695321	          0.05033196	          1.59398615	          0.52492291	         -0.21321642	          1.67472517	          0.66350532	         -0.01612496	          1.54181004	          0.58883870	         -0.26735723	          1.71010816	          0.58464020	         -0.03586550	          1.50480092	          0.50866336	         -0.26101184	          1.62095153	          0.23231405	          0.04378492	          1.39578843	          0.19975324	         -0.30773801	          1.61018991	          0.19855541	         -0.02951469	          1.36921668	          0.17583801	         -0.23447682	          1.70758355	          0.05480694	         -0.05743754	          1.47657776	          0.03995646	         -0.18292740	
